<svg width="34" height="34" viewBox="0 0 34 34" fill="none" xmlns="http://www.w3.org/2000/svg">
<path d="M16.6667 0.333008C7.46667 0.333008 0 7.79967 0 16.9997C0 26.1997 7.46667 33.6663 16.6667 33.6663C25.8667 33.6663 33.3333 26.1997 33.3333 16.9997C33.3333 7.79967 25.8667 0.333008 16.6667 0.333008ZM5.38333 9.91634C6.83333 11.3663 7.83333 13.233 8.18333 15.333H3.45C3.7 13.3663 4.38333 11.533 5.38333 9.91634ZM3.45 18.6663H8.18333C7.83333 20.7663 6.83333 22.633 5.38333 24.083C4.38333 22.4663 3.7 20.633 3.45 18.6663ZM15 30.2163C12.1167 29.8497 9.51667 28.5497 7.51667 26.6497C9.68333 24.583 11.1667 21.7997 11.55 18.6663H15V30.2163ZM15 15.333H11.55C11.15 12.1997 9.68333 9.39967 7.5 7.33301C9.51667 5.43301 12.1167 4.14967 15 3.78301V15.333ZM29.8833 15.333H25.15C25.5 13.233 26.5 11.3663 27.95 9.91634C28.95 11.533 29.6333 13.3663 29.8833 15.333ZM18.3333 3.78301C21.2167 4.14967 23.8167 5.43301 25.8333 7.33301C23.65 9.39967 22.1833 12.1997 21.7833 15.333H18.3333V3.78301ZM18.3333 30.2163V18.6663H21.7833C22.1833 21.7997 23.65 24.583 25.8167 26.6497C23.8167 28.5497 21.2167 29.8497 18.3333 30.2163ZM27.95 24.083C26.5 22.6497 25.5167 20.7663 25.15 18.6663H29.8833C29.6333 20.633 28.95 22.4663 27.95 24.083Z" fill="url(#paint0_linear_149_2973)"/>
<defs>
<linearGradient id="paint0_linear_149_2973" x1="16.6667" y1="0.333008" x2="16.6667" y2="33.6663" gradientUnits="userSpaceOnUse">
<stop stop-color="#DA0A15"/>
<stop offset="1" stop-color="#B32323"/>
</linearGradient>
</defs>
</svg>
