<svg width="37" height="28" viewBox="0 0 37 28" fill="none" xmlns="http://www.w3.org/2000/svg">
<path d="M26.1167 15.8833C28.4 17.4333 30 19.5333 30 22.3333V27.3333H36.6667V22.3333C36.6667 18.7 30.7167 16.55 26.1167 15.8833Z" fill="url(#paint0_linear_149_2962)"/>
<path d="M23.3334 14.0001C27.0167 14.0001 30 11.0167 30 7.33341C30 3.65008 27.0167 0.666748 23.3334 0.666748C22.55 0.666748 21.8167 0.833414 21.1167 1.06675C22.5 2.78341 23.3334 4.96675 23.3334 7.33341C23.3334 9.70008 22.5 11.8834 21.1167 13.6001C21.8167 13.8334 22.55 14.0001 23.3334 14.0001Z" fill="url(#paint1_linear_149_2962)"/>
<path d="M13.3332 14.0001C17.0165 14.0001 19.9998 11.0167 19.9998 7.33341C19.9998 3.65008 17.0165 0.666748 13.3332 0.666748C9.64984 0.666748 6.6665 3.65008 6.6665 7.33341C6.6665 11.0167 9.64984 14.0001 13.3332 14.0001ZM13.3332 4.00008C15.1665 4.00008 16.6665 5.50008 16.6665 7.33341C16.6665 9.16675 15.1665 10.6667 13.3332 10.6667C11.4998 10.6667 9.99984 9.16675 9.99984 7.33341C9.99984 5.50008 11.4998 4.00008 13.3332 4.00008Z" fill="url(#paint2_linear_149_2962)"/>
<path d="M13.3333 15.6667C8.88333 15.6667 0 17.9001 0 22.3334V27.3334H26.6667V22.3334C26.6667 17.9001 17.7833 15.6667 13.3333 15.6667ZM23.3333 24.0001H3.33333V22.3501C3.66667 21.1501 8.83333 19.0001 13.3333 19.0001C17.8333 19.0001 23 21.1501 23.3333 22.3334V24.0001Z" fill="url(#paint3_linear_149_2962)"/>
<defs>
<linearGradient id="paint0_linear_149_2962" x1="31.3917" y1="15.8833" x2="31.3917" y2="27.3333" gradientUnits="userSpaceOnUse">
<stop stop-color="#DA0A15"/>
<stop offset="1" stop-color="#B32323"/>
</linearGradient>
<linearGradient id="paint1_linear_149_2962" x1="25.5584" y1="0.666748" x2="25.5584" y2="14.0001" gradientUnits="userSpaceOnUse">
<stop stop-color="#DA0A15"/>
<stop offset="1" stop-color="#B32323"/>
</linearGradient>
<linearGradient id="paint2_linear_149_2962" x1="13.3332" y1="0.666748" x2="13.3332" y2="14.0001" gradientUnits="userSpaceOnUse">
<stop stop-color="#DA0A15"/>
<stop offset="1" stop-color="#B32323"/>
</linearGradient>
<linearGradient id="paint3_linear_149_2962" x1="13.3333" y1="15.6667" x2="13.3333" y2="27.3334" gradientUnits="userSpaceOnUse">
<stop stop-color="#DA0A15"/>
<stop offset="1" stop-color="#B32323"/>
</linearGradient>
</defs>
</svg>
