<svg width="34" height="30" viewBox="0 0 34 30" fill="none" xmlns="http://www.w3.org/2000/svg">
<path d="M16.6197 6.63537V0H0V29.8592H33.2394V6.63537H16.6197ZM6.64789 26.5415H3.32394V23.2238H6.64789V26.5415ZM6.64789 19.9061H3.32394V16.5884H6.64789V19.9061ZM6.64789 13.2707H3.32394V9.95305H6.64789V13.2707ZM6.64789 6.63537H3.32394V3.31768H6.64789V6.63537ZM13.2958 26.5415H9.97183V23.2238H13.2958V26.5415ZM13.2958 19.9061H9.97183V16.5884H13.2958V19.9061ZM13.2958 13.2707H9.97183V9.95305H13.2958V13.2707ZM13.2958 6.63537H9.97183V3.31768H13.2958V6.63537ZM29.9155 26.5415H16.6197V23.2238H19.9437V19.9061H16.6197V16.5884H19.9437V13.2707H16.6197V9.95305H29.9155V26.5415ZM23.2676 13.2707H26.5916V16.5884H23.2676V13.2707ZM23.2676 19.9061H26.5916V23.2238H23.2676V19.9061Z" fill="url(#paint0_linear_149_2987)"/>
<defs>
<linearGradient id="paint0_linear_149_2987" x1="16.6197" y1="0" x2="16.6197" y2="29.8592" gradientUnits="userSpaceOnUse">
<stop stop-color="#DA0A15"/>
<stop offset="1" stop-color="#B32323"/>
</linearGradient>
</defs>
</svg>
