<svg width="338" height="80" viewBox="0 0 338 80" fill="none" xmlns="http://www.w3.org/2000/svg">
<path d="M65.7441 5.29688L44.0146 58.816H52.6286L54.3514 54.4676L56.9078 47.7777L65.7441 24.9206L72.6353 42.593H80.9714L65.7441 5.29688Z" fill="white"/>
<path d="M76.8032 53.2441L78.915 58.819H87.529L85.2505 53.2441H76.8032Z" fill="white"/>
<path d="M2.83428 14.2732H20.618L0 58.3708V58.4823V59.0397H33.789V50.6774H13.0043L33.8446 6.74711V6.63562V6.07812H2.83428V14.2732Z" fill="white"/>
<path d="M171.335 30.8856C171.835 30.3838 172.391 29.8821 172.891 29.2689C173.558 28.5441 174.114 27.7079 174.614 26.8159C175.114 25.9239 175.558 24.9762 175.836 23.9169C176.17 22.8577 176.336 21.687 176.336 20.5162C176.336 18.5093 175.947 16.6138 175.225 14.8856C174.503 13.1574 173.447 11.5964 172.113 10.2584C170.835 8.97619 169.279 7.91695 167.5 7.13647C165.777 6.41173 163.888 6.02148 161.943 6.02148H141.714V58.8716H162.276C164.388 58.8716 166.444 58.4814 168.334 57.6451C170.223 56.8089 171.891 55.6939 173.28 54.2444C174.669 52.795 175.781 51.1225 176.614 49.2828C177.448 47.3873 177.837 45.3803 177.837 43.2061C177.837 41.0319 177.17 37.8542 175.892 35.68C174.725 33.673 173.169 32.0563 171.279 30.8856M167.167 23.3037C166.833 24.1399 166.333 24.9204 165.722 25.5337C165.111 26.2027 164.388 26.7044 163.499 27.0389C162.665 27.3734 161.721 27.5964 160.776 27.5964H150.217V13.6034H160.776C162.721 13.6034 164.388 14.2723 165.722 15.6103C167.056 16.9483 167.723 18.6208 167.723 20.6277C167.723 22.6347 167.556 22.4675 167.167 23.3037ZM150.217 35.0668H161.109C162.221 35.0668 163.277 35.2898 164.277 35.68C165.277 36.126 166.111 36.6835 166.889 37.464C167.611 38.1887 168.223 39.0807 168.612 40.0842C169.056 41.0877 169.223 42.1469 169.223 43.2619C169.223 44.3769 169.001 45.3803 168.612 46.3838C168.167 47.3873 167.611 48.2235 166.889 49.004C166.166 49.7845 165.277 50.342 164.277 50.788C163.277 51.234 162.221 51.457 161.109 51.457H150.217V35.1225V35.0668Z" fill="white"/>
<path d="M243.47 6.07617H235.078V58.982H264.588V50.6754H243.47V6.07617Z" fill="white"/>
<path d="M311.548 13.881C309.27 11.4838 306.547 9.58836 303.434 8.19464C300.378 6.80091 296.988 6.07617 293.487 6.07617H274.98V58.9263H293.487C297.099 58.9263 300.545 58.2016 303.657 56.8078C306.769 55.4141 309.492 53.5186 311.77 51.1214C314.049 48.7242 315.827 45.9368 317.106 42.7591C318.384 39.5814 319.051 36.1249 319.051 32.5012C319.051 28.8775 318.384 25.4211 317.05 22.2434C315.716 19.0657 313.882 16.2225 311.604 13.8253M310.326 32.5012C310.326 35.0657 309.881 37.5744 308.992 39.8601C308.103 42.1458 306.88 44.1528 305.324 45.881C303.768 47.6092 301.878 48.9472 299.711 49.9507C297.544 50.9542 295.154 51.4559 292.597 51.4559H283.317V13.5465H292.597C295.098 13.5465 297.488 14.0483 299.655 15.0518C301.823 16.0553 303.712 17.3932 305.268 19.1215C306.824 20.8497 308.103 22.8566 308.992 25.1424C309.881 27.4281 310.326 29.881 310.326 32.5012Z" fill="white"/>
<path d="M337.724 6.07617H329.332V58.9263H337.724V6.07617Z" fill="white"/>
<path d="M181.393 58.814H190.007L191.73 54.4099L192.897 51.3437H213.404L214.627 54.4099L216.294 58.814H224.908L203.123 5.29492L181.338 58.814H181.393ZM210.681 44.3193H195.62L203.178 24.9186L210.737 44.3193H210.681Z" fill="white"/>
<path d="M110.037 79.2752L96.421 27.3728L89.8632 51.2892H62.4097V44.3763H84.6393L96.81 0L110.037 54.2996L122.263 17.115L137.101 63.7212H174.169V70.5783H132.044L122.152 39.4146L110.037 79.2752Z" fill="white"/>
<path d="M182.949 70.6328H184.228L186.617 76.4307L189.118 70.6328H190.396L191.952 79.7757H190.118L189.34 74.145L186.895 79.7757H186.284L183.95 74.145L183.06 79.7757H181.227L182.949 70.6328Z" fill="white"/>
<path d="M201.289 72.1938H198.01V74.2008H201.178V75.7617H198.01V78.2147H201.289V79.7757H196.287V70.6328H201.289V72.1938Z" fill="white"/>
<path d="M208.125 70.6328C209.403 70.6328 210.515 70.7443 211.515 71.5248C212.627 72.361 213.238 73.699 213.238 75.2042C213.238 76.7095 212.627 78.0474 211.404 78.8837C210.348 79.6084 209.348 79.7757 208.069 79.7757H205.735V70.6886H208.125V70.6328ZM207.514 78.2147H208.069C208.514 78.2147 209.514 78.2147 210.292 77.6014C211.015 77.0997 211.404 76.152 211.404 75.2042C211.404 74.2565 211.015 73.3088 210.292 72.7513C209.57 72.1938 208.681 72.138 208.069 72.138H207.514V78.2147Z" fill="white"/>
<path d="M219.351 70.6328H217.572V79.7199H219.351V70.6328Z" fill="white"/>
<path d="M230.744 79.4424C230.188 79.7211 229.465 79.9999 228.521 79.9999C226.909 79.9999 225.964 79.4424 225.186 78.7177C224.13 77.7142 223.741 76.5992 223.741 75.2612C223.741 73.9232 224.408 72.418 225.186 71.6933C226.075 70.857 227.242 70.4668 228.521 70.4668C229.799 70.4668 229.91 70.5783 230.744 71.0243V73.087C229.91 72.1393 228.854 72.0835 228.576 72.0835C226.742 72.0835 225.575 73.5887 225.575 75.2612C225.575 76.9337 227.131 78.3832 228.632 78.3832C230.132 78.3832 230.243 77.9929 230.744 77.3797V79.4424Z" fill="white"/>
<path d="M240.469 77.8245H236.801L236.023 79.7199H234.078L237.968 70.6328H239.358L243.137 79.7199H241.247L240.469 77.8245ZM239.969 76.375L238.691 73.0858L237.413 76.375H240.025H239.969Z" fill="white"/>
<path d="M248.749 70.6328V78.2147H251.528V79.7757H246.971V70.6328H248.749Z" fill="white"/>
<path d="M269.256 76.3762C268.7 77.0452 268.534 77.2124 268.256 77.4912L268.034 77.7142L269.868 79.7769H267.7L266.811 78.7734C266.366 79.1637 265.31 79.9999 263.866 79.9999C262.421 79.9999 261.031 78.7177 261.031 77.3797C261.031 76.0417 262.087 75.317 262.476 75.094L263.199 74.648C262.865 74.3135 262.309 73.6445 262.309 72.7525C262.309 71.8605 263.143 70.4668 264.81 70.4668C266.477 70.4668 267.256 71.526 267.256 72.641C267.256 73.756 266.922 74.0905 265.977 74.648L265.588 74.871L267.089 76.5992C267.7 75.986 268.034 75.5957 268.2 75.317L269.256 76.3204V76.3762ZM264.143 75.6515C263.476 76.0417 262.865 76.5434 262.865 77.2124C262.865 77.8814 263.421 78.4389 264.199 78.4389C264.977 78.4389 265.588 77.9372 265.866 77.6584L264.143 75.6515ZM264.755 73.9232L265.144 73.6445C265.644 73.31 265.755 72.9198 265.755 72.641C265.755 72.195 265.477 71.749 264.866 71.749C264.255 71.749 263.921 72.195 263.921 72.5853C263.921 72.9755 264.088 73.1985 264.31 73.4215L264.699 73.9232H264.755Z" fill="white"/>
<path d="M282.316 70.6328C283.594 70.6328 284.206 70.9673 284.65 71.3018C285.317 71.915 285.539 72.6398 285.539 73.3645C285.539 74.0893 285.206 75.037 284.483 75.483C284.261 75.6502 283.928 75.8175 283.483 75.8732L286.317 79.7199H284.094L281.649 76.0405H281.427V79.7199H279.648V70.6328H282.26H282.316ZM281.427 74.814H281.927C282.26 74.814 283.65 74.814 283.65 73.4203C283.65 72.0265 282.26 72.0823 281.927 72.0823H281.371V74.814H281.427Z" fill="white"/>
<path d="M295.265 72.1938H291.986V74.2008H295.098V75.7617H291.986V78.2147H295.265V79.7757H290.208V70.6328H295.265V72.1938Z" fill="white"/>
<path d="M304.157 72.6969C303.601 71.9722 302.99 71.9164 302.656 71.9164C301.712 71.9164 301.378 72.5297 301.378 72.9757C301.378 73.4217 301.434 73.4217 301.656 73.5889C301.878 73.8119 302.156 73.9234 302.767 74.0907C303.49 74.3137 304.157 74.5924 304.601 74.9826C304.99 75.3729 305.379 75.9861 305.379 76.8781C305.379 78.6621 304.101 79.8886 302.212 79.8886C300.322 79.8886 299.544 78.8851 299.1 78.1603L300.267 77.0454C300.711 77.9373 301.545 78.2718 302.156 78.2718C302.767 78.2718 303.546 77.7701 303.546 76.9896C303.546 76.2091 303.434 76.3764 303.212 76.1534C302.879 75.8189 302.323 75.6516 301.823 75.4844C301.323 75.3171 300.767 75.0941 300.322 74.7039C300.044 74.4252 299.6 73.9234 299.6 73.0314C299.6 71.6934 300.489 70.3555 302.49 70.3555C304.49 70.3555 304.157 70.467 305.046 71.4147L304.101 72.6412L304.157 72.6969Z" fill="white"/>
<path d="M316.272 79.4424C315.716 79.7211 314.994 79.9999 314.049 79.9999C312.437 79.9999 311.492 79.4424 310.714 78.7177C309.659 77.7142 309.27 76.5992 309.27 75.2612C309.27 73.9232 309.936 72.418 310.714 71.6933C311.604 70.857 312.771 70.4668 314.049 70.4668C315.327 70.4668 315.438 70.5783 316.272 71.0243V73.087C315.438 72.1393 314.382 72.0835 314.104 72.0835C312.271 72.0835 311.103 73.5887 311.103 75.2612C311.103 76.9337 312.66 78.3832 314.16 78.3832C315.661 78.3832 315.772 77.9929 316.272 77.3797V79.4424Z" fill="white"/>
<path d="M322.385 70.6328V76.375C322.385 77.044 322.607 77.4899 322.83 77.7129C323.107 78.0474 323.552 78.3262 324.275 78.3262C324.997 78.3262 325.442 77.9917 325.719 77.7129C325.942 77.4899 326.164 77.044 326.164 76.375V70.6328H327.942V76.2077C327.942 77.044 327.831 77.9359 327.276 78.6607C326.609 79.4969 325.497 79.9987 324.33 79.9987C323.163 79.9987 321.996 79.5527 321.385 78.6607C320.829 77.9917 320.718 77.0997 320.718 76.2077V70.6328H322.496H322.385Z" fill="white"/>
<path d="M337.723 72.1938H334.5V74.2008H337.612V75.7617H334.5V78.2147H337.723V79.7757H332.722V70.6328H337.723V72.1938Z" fill="white"/>
</svg>
