<svg width="205" height="52" viewBox="0 0 205 52" fill="none" xmlns="http://www.w3.org/2000/svg">
<path d="M40.7491 5.08407L40.5171 4.51677L40.2862 5.08452L27.225 37.1957L27.085 37.5399H27.4565H32.6343H32.804L32.8666 37.3821L33.9022 34.7731L33.9022 34.7731L33.9033 34.7702L35.4395 30.7572L35.4399 30.7563L40.5187 17.6424L44.427 27.6471L44.4892 27.8062H44.6599H49.6706H50.043L49.902 27.4615L40.7491 5.08407Z" fill="#50535A" stroke="white" stroke-width="0.5"/>
<path d="M47.165 33.6943H46.8028L46.9313 34.033L48.2007 37.3779L48.2619 37.5392H48.4344H53.6121H53.9846L53.8435 37.1945L52.4739 33.8496L52.4103 33.6943H52.2425H47.165Z" fill="#50535A" stroke="white" stroke-width="0.5"/>
<path d="M2.45363 10.5635V10.8135H2.70363H12.9999L0.773605 36.9157L0.75 36.9661V37.0217V37.0886V37.4231V37.6731H1H21.31H21.56V37.4231V32.4058V32.1558H21.31H9.21229L21.5692 6.15519L21.5934 6.10426V6.04787V5.98098V5.64648V5.39648H21.3434H2.70363H2.45363V5.64648V10.5635Z" fill="#50535A" stroke="white" stroke-width="0.5"/>
<mask id="path-4-outside-1_450_1506" maskUnits="userSpaceOnUse" x="85.1821" y="4.6123" width="24" height="34" fill="black">
<rect fill="white" x="85.1821" y="4.6123" width="24" height="34"/>
<path d="M103.987 20.5306C104.287 20.2296 104.621 19.9285 104.922 19.5606C105.323 19.1257 105.657 18.624 105.958 18.0888C106.258 17.5536 106.526 16.985 106.693 16.3495C106.893 15.7139 106.993 15.0115 106.993 14.3091C106.993 13.1049 106.759 11.9676 106.325 10.9307C105.891 9.89379 105.256 8.95722 104.454 8.15444C103.686 7.38511 102.751 6.74957 101.682 6.28129C100.646 5.84645 99.5106 5.6123 98.3414 5.6123H86.1821V37.3221H98.5418C99.8112 37.3221 101.047 37.0879 102.183 36.5862C103.319 36.0844 104.321 35.4155 105.156 34.5458C105.991 33.6761 106.659 32.6726 107.16 31.5688C107.661 30.4315 107.895 29.2274 107.895 27.9229C107.895 26.6183 107.494 24.7117 106.726 23.4072C106.024 22.2031 105.089 21.233 103.953 20.5306M101.481 15.9815C101.281 16.4833 100.98 16.9516 100.613 17.3195C100.245 17.7209 99.8112 18.0219 99.2767 18.2226C98.7757 18.4233 98.2078 18.5571 97.6399 18.5571H91.293V10.1614H97.6399C98.8091 10.1614 99.8112 10.5628 100.613 11.3656C101.415 12.1683 101.815 13.1718 101.815 14.376C101.815 15.5801 101.715 15.4798 101.481 15.9815ZM91.293 23.0393H97.8403C98.5084 23.0393 99.1431 23.1731 99.7444 23.4072C100.346 23.6748 100.847 24.0093 101.314 24.4776C101.749 24.9124 102.116 25.4476 102.35 26.0497C102.617 26.6518 102.717 27.2873 102.717 27.9563C102.717 28.6253 102.584 29.2274 102.35 29.8295C102.083 30.4315 101.749 30.9333 101.314 31.4016C100.88 31.8699 100.346 32.2043 99.7444 32.4719C99.1431 32.7395 98.5084 32.8733 97.8403 32.8733H91.293V23.0727V23.0393Z"/>
</mask>
<path d="M103.987 20.5306C104.287 20.2296 104.621 19.9285 104.922 19.5606C105.323 19.1257 105.657 18.624 105.958 18.0888C106.258 17.5536 106.526 16.985 106.693 16.3495C106.893 15.7139 106.993 15.0115 106.993 14.3091C106.993 13.1049 106.759 11.9676 106.325 10.9307C105.891 9.89379 105.256 8.95722 104.454 8.15444C103.686 7.38511 102.751 6.74957 101.682 6.28129C100.646 5.84645 99.5106 5.6123 98.3414 5.6123H86.1821V37.3221H98.5418C99.8112 37.3221 101.047 37.0879 102.183 36.5862C103.319 36.0844 104.321 35.4155 105.156 34.5458C105.991 33.6761 106.659 32.6726 107.16 31.5688C107.661 30.4315 107.895 29.2274 107.895 27.9229C107.895 26.6183 107.494 24.7117 106.726 23.4072C106.024 22.2031 105.089 21.233 103.953 20.5306M101.481 15.9815C101.281 16.4833 100.98 16.9516 100.613 17.3195C100.245 17.7209 99.8112 18.0219 99.2767 18.2226C98.7757 18.4233 98.2078 18.5571 97.6399 18.5571H91.293V10.1614H97.6399C98.8091 10.1614 99.8112 10.5628 100.613 11.3656C101.415 12.1683 101.815 13.1718 101.815 14.376C101.815 15.5801 101.715 15.4798 101.481 15.9815ZM91.293 23.0393H97.8403C98.5084 23.0393 99.1431 23.1731 99.7444 23.4072C100.346 23.6748 100.847 24.0093 101.314 24.4776C101.749 24.9124 102.116 25.4476 102.35 26.0497C102.617 26.6518 102.717 27.2873 102.717 27.9563C102.717 28.6253 102.584 29.2274 102.35 29.8295C102.083 30.4315 101.749 30.9333 101.314 31.4016C100.88 31.8699 100.346 32.2043 99.7444 32.4719C99.1431 32.7395 98.5084 32.8733 97.8403 32.8733H91.293V23.0727V23.0393Z" fill="#50535A"/>
<path d="M104.922 19.5606L104.554 19.2217L104.544 19.2327L104.535 19.2442L104.922 19.5606ZM106.693 16.3495L106.216 16.1991L106.212 16.2107L106.209 16.2224L106.693 16.3495ZM104.454 8.15444L104.101 8.50775L104.454 8.15444ZM101.682 6.28129L101.883 5.82325L101.875 5.82028L101.682 6.28129ZM86.1821 5.6123V5.1123H85.6821V5.6123H86.1821ZM86.1821 37.3221H85.6821V37.8221H86.1821V37.3221ZM107.16 31.5688L107.616 31.7755L107.618 31.7704L107.16 31.5688ZM106.726 23.4072L106.294 23.6589L106.295 23.661L106.726 23.4072ZM101.481 15.9815L101.028 15.7703L101.022 15.783L101.017 15.796L101.481 15.9815ZM100.613 17.3195L100.259 16.9662L100.251 16.9739L100.244 16.9819L100.613 17.3195ZM99.2767 18.2226L99.1009 17.7544L99.0908 17.7585L99.2767 18.2226ZM91.293 18.5571H90.793V19.0571H91.293V18.5571ZM91.293 10.1614V9.66138H90.793V10.1614H91.293ZM91.293 23.0393V22.5393H90.793V23.0393H91.293ZM99.7444 23.4072L99.9477 22.9504L99.9369 22.9456L99.9258 22.9413L99.7444 23.4072ZM102.35 26.0497L101.884 26.2307L101.888 26.2417L101.893 26.2526L102.35 26.0497ZM102.35 29.8295L102.807 30.0323L102.812 30.0215L102.816 30.0105L102.35 29.8295ZM91.293 32.8733H90.793V33.3733H91.293V32.8733ZM104.341 20.8839C104.618 20.6064 104.988 20.2706 105.309 19.8769L104.535 19.2442C104.255 19.5864 103.957 19.8527 103.633 20.1773L104.341 20.8839ZM105.29 19.8995C105.726 19.4264 106.082 18.889 106.394 18.3337L105.522 17.8439C105.232 18.359 104.92 18.8251 104.554 19.2217L105.29 19.8995ZM106.394 18.3337C106.706 17.7777 106.994 17.168 107.176 16.4766L106.209 16.2224C106.057 16.802 105.811 17.3296 105.522 17.8439L106.394 18.3337ZM107.169 16.4999C107.387 15.8109 107.493 15.0572 107.493 14.3091H106.493C106.493 14.9658 106.399 15.617 106.216 16.1991L107.169 16.4999ZM107.493 14.3091C107.493 13.0394 107.246 11.8364 106.786 10.7376L105.864 11.1239C106.272 12.0989 106.493 13.1704 106.493 14.3091H107.493ZM106.786 10.7376C106.326 9.63897 105.654 8.6484 104.808 7.80112L104.101 8.50775C104.858 9.26603 105.455 10.1486 105.864 11.1239L106.786 10.7376ZM104.808 7.80112C103.994 6.98545 103.006 6.31534 101.882 5.82331L101.481 6.73927C102.496 7.18381 103.379 7.78477 104.101 8.50775L104.808 7.80112ZM101.875 5.82028C100.779 5.35979 99.5773 5.1123 98.3414 5.1123V6.1123C99.4439 6.1123 100.514 6.33311 101.488 6.74229L101.875 5.82028ZM98.3414 5.1123H86.1821V6.1123H98.3414V5.1123ZM85.6821 5.6123V37.3221H86.6821V5.6123H85.6821ZM86.1821 37.8221H98.5418V36.8221H86.1821V37.8221ZM98.5418 37.8221C99.8726 37.8221 101.179 37.5765 102.385 37.0435L101.981 36.1288C100.916 36.5993 99.7498 36.8221 98.5418 36.8221V37.8221ZM102.385 37.0435C103.572 36.519 104.631 35.8147 105.517 34.8921L104.795 34.1995C104.011 35.0162 103.065 35.6498 101.981 36.1288L102.385 37.0435ZM105.517 34.8921C106.393 33.9795 107.092 32.9282 107.616 31.7755L106.705 31.3621C106.226 32.4171 105.589 33.3727 104.795 34.1995L105.517 34.8921ZM107.618 31.7704C108.15 30.5633 108.395 29.2896 108.395 27.9229H107.395C107.395 29.1652 107.173 30.2998 106.703 31.3672L107.618 31.7704ZM108.395 27.9229C108.395 26.5482 107.979 24.5498 107.157 23.1535L106.295 23.661C107.009 24.8737 107.395 26.6885 107.395 27.9229H108.395ZM107.158 23.1555C106.417 21.8836 105.425 20.8528 104.216 20.1054L103.69 20.9558C104.753 21.6133 105.632 22.5225 106.294 23.6589L107.158 23.1555ZM101.017 15.796C100.84 16.24 100.575 16.6499 100.259 16.9662L100.967 17.6728C101.386 17.2532 101.722 16.7265 101.946 16.167L101.017 15.796ZM100.244 16.9819C99.9285 17.3267 99.5599 17.5822 99.101 17.7545L99.4525 18.6907C100.063 18.4616 100.562 18.1151 100.982 17.6571L100.244 16.9819ZM99.0908 17.7585C98.6364 17.9405 98.1319 18.0571 97.6399 18.0571V19.0571C98.2836 19.0571 98.9149 18.9062 99.4626 18.6868L99.0908 17.7585ZM97.6399 18.0571H91.293V19.0571H97.6399V18.0571ZM91.793 18.5571V10.1614H90.793V18.5571H91.793ZM91.293 10.6614H97.6399V9.66138H91.293V10.6614ZM97.6399 10.6614C98.683 10.6614 99.5558 11.0146 100.259 11.7189L100.967 11.0122C100.067 10.1109 98.9351 9.66138 97.6399 9.66138V10.6614ZM100.259 11.7189C100.961 12.4217 101.315 13.2953 101.315 14.376H102.315C102.315 13.0483 101.868 11.915 100.967 11.0122L100.259 11.7189ZM101.315 14.376C101.315 14.9828 101.288 15.192 101.256 15.3036C101.242 15.3499 101.226 15.3874 101.19 15.4546C101.155 15.521 101.094 15.6297 101.028 15.7703L101.935 16.1927C101.986 16.0825 102.025 16.0156 102.074 15.922C102.123 15.8293 102.176 15.7226 102.217 15.5808C102.293 15.316 102.315 14.9733 102.315 14.376H101.315ZM91.293 23.5393H97.8403V22.5393H91.293V23.5393ZM97.8403 23.5393C98.4401 23.5393 99.0134 23.6591 99.563 23.8732L99.9258 22.9413C99.2728 22.687 98.5767 22.5393 97.8403 22.5393V23.5393ZM99.5411 23.864C100.09 24.1084 100.539 24.4091 100.961 24.8309L101.668 24.1243C101.154 23.6096 100.601 23.2412 99.9477 22.9504L99.5411 23.864ZM100.961 24.8309C101.351 25.2216 101.677 25.6993 101.884 26.2307L102.816 25.8687C102.555 25.1959 102.147 24.6033 101.668 24.1243L100.961 24.8309ZM101.893 26.2526C102.125 26.7751 102.217 27.3377 102.217 27.9563H103.217C103.217 27.237 103.11 26.5285 102.807 25.8469L101.893 26.2526ZM102.217 27.9563C102.217 28.5539 102.099 29.0945 101.884 29.6484L102.816 30.0105C103.069 29.3602 103.217 28.6967 103.217 27.9563H102.217ZM101.893 29.6266C101.648 30.1777 101.345 30.6332 100.948 31.0616L101.681 31.7415C102.152 31.2333 102.517 30.6853 102.807 30.0323L101.893 29.6266ZM100.948 31.0616C100.573 31.4654 100.102 31.7654 99.5411 32.0151L99.9477 32.9287C100.589 32.6433 101.187 32.2743 101.681 31.7415L100.948 31.0616ZM99.5411 32.0151C99.0048 32.2538 98.4395 32.3733 97.8403 32.3733V33.3733C98.5774 33.3733 99.2814 33.2253 99.9477 32.9287L99.5411 32.0151ZM97.8403 32.3733H91.293V33.3733H97.8403V32.3733ZM91.793 32.8733V23.0727H90.793V32.8733H91.793ZM91.793 23.0727V23.0393H90.793V23.0727H91.793Z" fill="white" mask="url(#path-4-outside-1_450_1506)"/>
<path d="M147.595 5.64648V5.39648H147.345H142.301H142.051V5.64648V37.3897V37.6397H142.301H160.039H160.289V37.3897V32.4058V32.1558H160.039H147.595V5.64648Z" fill="#50535A" stroke="white" stroke-width="0.5"/>
<mask id="path-7-outside-2_450_1506" maskUnits="userSpaceOnUse" x="165.286" y="4.64648" width="28" height="34" fill="black">
<rect fill="white" x="165.286" y="4.64648" width="28" height="34"/>
<path d="M188.266 10.3294C186.897 8.89105 185.26 7.75378 183.389 6.91755C181.552 6.08132 179.514 5.64648 177.41 5.64648H166.286V37.3562H177.41C179.581 37.3562 181.652 36.9214 183.523 36.0852C185.394 35.2489 187.03 34.1117 188.4 32.6734C189.77 31.2351 190.839 29.5626 191.607 27.656C192.375 25.7494 192.776 23.6756 192.776 21.5014C192.776 19.3272 192.375 17.2533 191.573 15.3467C190.772 13.4401 189.669 11.7342 188.3 10.2959M187.531 21.5014C187.531 23.04 187.264 24.5452 186.73 25.9166C186.195 27.2881 185.46 28.4922 184.525 29.5291C183.59 30.5661 182.454 31.3688 181.151 31.9709C179.848 32.573 178.412 32.8741 176.875 32.8741H171.297V10.1287H176.875C178.379 10.1287 179.815 10.4297 181.118 11.0318C182.421 11.6339 183.556 12.4367 184.492 13.4736C185.427 14.5105 186.195 15.7147 186.73 17.0861C187.264 18.4575 187.531 19.9293 187.531 21.5014Z"/>
</mask>
<path d="M188.266 10.3294C186.897 8.89105 185.26 7.75378 183.389 6.91755C181.552 6.08132 179.514 5.64648 177.41 5.64648H166.286V37.3562H177.41C179.581 37.3562 181.652 36.9214 183.523 36.0852C185.394 35.2489 187.03 34.1117 188.4 32.6734C189.77 31.2351 190.839 29.5626 191.607 27.656C192.375 25.7494 192.776 23.6756 192.776 21.5014C192.776 19.3272 192.375 17.2533 191.573 15.3467C190.772 13.4401 189.669 11.7342 188.3 10.2959M187.531 21.5014C187.531 23.04 187.264 24.5452 186.73 25.9166C186.195 27.2881 185.46 28.4922 184.525 29.5291C183.59 30.5661 182.454 31.3688 181.151 31.9709C179.848 32.573 178.412 32.8741 176.875 32.8741H171.297V10.1287H176.875C178.379 10.1287 179.815 10.4297 181.118 11.0318C182.421 11.6339 183.556 12.4367 184.492 13.4736C185.427 14.5105 186.195 15.7147 186.73 17.0861C187.264 18.4575 187.531 19.9293 187.531 21.5014Z" fill="#50535A"/>
<path d="M183.389 6.91755L183.182 7.37264L183.185 7.37402L183.389 6.91755ZM166.286 5.64648V5.14648H165.786V5.64648H166.286ZM166.286 37.3562H165.786V37.8562H166.286V37.3562ZM171.297 32.8741H170.797V33.3741H171.297V32.8741ZM171.297 10.1287V9.62866H170.797V10.1287H171.297ZM188.628 9.98456C187.211 8.49642 185.52 7.32234 183.593 6.46108L183.185 7.37402C185 8.18521 186.582 9.28567 187.904 10.6742L188.628 9.98456ZM183.596 6.46247C181.692 5.59555 179.583 5.14648 177.41 5.14648V6.14648C179.446 6.14648 181.412 6.5671 183.182 7.37263L183.596 6.46247ZM177.41 5.14648H166.286V6.14648H177.41V5.14648ZM165.786 5.64648V37.3562H166.786V5.64648H165.786ZM166.286 37.8562H177.41V36.8562H166.286V37.8562ZM177.41 37.8562C179.648 37.8562 181.789 37.4079 183.727 36.5416L183.319 35.6287C181.515 36.4349 179.514 36.8562 177.41 36.8562V37.8562ZM183.727 36.5416C185.654 35.6804 187.345 34.5063 188.762 33.0182L188.038 32.3286C186.716 33.7171 185.134 34.8175 183.319 35.6287L183.727 36.5416ZM188.762 33.0182C190.177 31.5325 191.28 29.806 192.071 27.8429L191.143 27.4691C190.398 29.3192 189.362 30.9376 188.038 32.3286L188.762 33.0182ZM192.071 27.8429C192.864 25.875 193.276 23.7375 193.276 21.5014H192.276C192.276 23.6136 191.887 25.6238 191.143 27.4691L192.071 27.8429ZM193.276 21.5014C193.276 19.2652 192.864 17.1249 192.034 15.1529L191.113 15.5405C191.887 17.3817 192.276 19.3892 192.276 21.5014H193.276ZM192.034 15.1529C191.21 13.1934 190.075 11.4357 188.662 9.95111L187.938 10.6407C189.263 12.0328 190.333 13.6868 191.113 15.5405L192.034 15.1529ZM187.031 21.5014C187.031 22.9829 186.774 24.426 186.264 25.7351L187.196 26.0982C187.754 24.6645 188.031 23.0972 188.031 21.5014H187.031ZM186.264 25.7351C185.75 27.0532 185.046 28.2047 184.154 29.1943L184.896 29.864C185.874 28.7798 186.64 27.523 187.196 26.0982L186.264 25.7351ZM184.154 29.1943C183.269 30.1755 182.19 30.94 180.941 31.5171L181.361 32.4248C182.718 31.7977 183.911 30.9566 184.896 29.864L184.154 29.1943ZM180.941 31.5171C179.71 32.0863 178.346 32.3741 176.875 32.3741V33.3741C178.478 33.3741 179.987 33.0597 181.361 32.4248L180.941 31.5171ZM176.875 32.3741H171.297V33.3741H176.875V32.3741ZM171.797 32.8741V10.1287H170.797V32.8741H171.797ZM171.297 10.6287H176.875V9.62866H171.297V10.6287ZM176.875 10.6287C178.311 10.6287 179.676 10.9161 180.908 11.4857L181.328 10.5779C179.954 9.94333 178.446 9.62866 176.875 9.62866V10.6287ZM180.908 11.4857C182.157 12.0627 183.235 12.8272 184.12 13.8085L184.863 13.1387C183.877 12.0461 182.685 11.2051 181.328 10.5779L180.908 11.4857ZM184.12 13.8085C185.018 14.8031 185.753 15.9559 186.264 17.2676L187.196 16.9045C186.638 15.4734 185.836 14.2179 184.863 13.1387L184.12 13.8085ZM186.264 17.2676C186.774 18.5773 187.031 19.9871 187.031 21.5014H188.031C188.031 19.8714 187.754 18.3377 187.196 16.9045L186.264 17.2676Z" fill="white" mask="url(#path-7-outside-2_450_1506)"/>
<path d="M204.25 5.64648V5.39648H204H198.956H198.706V5.64648V37.3562V37.6062H198.956H204H204.25V37.3562V5.64648Z" fill="#50535A" stroke="white" stroke-width="0.5"/>
<path d="M115.211 37.5389H115.381L115.443 37.3801L116.479 34.7376L116.48 34.7355L117.12 33.0567H129.105L129.776 34.7371L129.777 34.7391L130.777 37.3775L130.838 37.5389H131.011H136.189H136.561L136.42 37.1945L123.326 5.08333L123.094 4.51566L122.863 5.08333L109.768 37.1945L109.628 37.5389H110H110.033H115.211ZM123.128 17.6394L127.305 28.3421H118.95L123.128 17.6394Z" fill="#50535A" stroke="white" stroke-width="0.5"/>
<path d="M66.8991 49.6282L67.1232 50.4809L67.3801 49.6375L74.4283 26.4898L80.1309 44.4223L80.1863 44.5966H80.3691H105.69H105.94V44.3466V40.2323V39.9823H105.69H83.5916L74.7281 12.1929L74.4938 11.4582L74.2525 12.1907L67.1767 33.6716L59.4335 1.94073L59.205 1.00421L58.9496 1.93376L51.6844 28.3755H38.5132H38.2632V28.6255V32.7732V33.0232H38.5132H55.0151H55.2056L55.2561 32.8394L58.9515 19.3868L66.8991 49.6282Z" fill="#DA0A15" stroke="white" stroke-width="0.5"/>
<path d="M110.968 44.1299H110.76L110.722 44.3335L109.686 49.8192L109.631 50.1155H109.932H111.034H111.248L111.281 49.9046L111.678 47.4005L112.741 49.9614L112.805 50.1155H112.972H113.339H113.503L113.569 49.9653L114.684 47.4027L115.029 49.8998L115.059 50.1155H115.277H116.379H116.675L116.626 49.8235L115.69 44.3379L115.655 44.1299H115.444H114.676H114.511L114.446 44.2807L113.178 47.2162L111.967 44.2845L111.903 44.1299H111.736H110.968Z" fill="#DA0A15" stroke="white" stroke-width="0.5"/>
<path d="M121.991 45.5665H122.241V45.3165V44.3799V44.1299H121.991H118.985H118.735V44.3799V49.8655V50.1155H118.985H121.991H122.241V49.8655V48.929V48.679H121.991H120.27V47.7072H121.924H122.174V47.4572V46.5206V46.2706H121.924H120.27V45.5665H121.991Z" fill="#DA0A15" stroke="white" stroke-width="0.5"/>
<path d="M126.1 44.1299H125.85V44.1633H124.664H124.414V44.4133V49.8655V50.1155H124.664H126.067C126.862 50.1155 127.52 50.0108 128.213 49.5367C129.025 48.9818 129.424 48.0961 129.424 47.1227C129.424 46.1521 129.028 45.2714 128.29 44.7165C127.619 44.195 126.878 44.1299 126.1 44.1299ZM127.261 48.3556L127.255 48.3599L127.249 48.3645C126.857 48.6728 126.34 48.679 126.067 48.679H125.983V45.533H126.067C126.427 45.533 126.887 45.5689 127.251 45.849C127.612 46.1273 127.821 46.6158 127.821 47.1227C127.821 47.6332 127.61 48.1133 127.261 48.3556Z" fill="#DA0A15" stroke="white" stroke-width="0.5"/>
<path d="M133.098 44.3799V44.1299H132.848H131.779H131.529V44.3799V49.8321V50.0821H131.779H132.848H133.098V49.8321V44.3799Z" fill="#DA0A15" stroke="white" stroke-width="0.5"/>
<path d="M139.808 49.8891L139.946 49.82V49.6656V48.428V47.7269L139.502 48.2698C139.466 48.3139 139.433 48.3562 139.404 48.3941C139.401 48.3981 139.398 48.4021 139.395 48.406C139.362 48.4479 139.334 48.4832 139.307 48.5154C139.254 48.5782 139.208 48.6214 139.154 48.6551C139.047 48.7219 138.863 48.78 138.426 48.78C138.054 48.78 137.655 48.598 137.345 48.292C137.037 47.9873 136.839 47.5803 136.839 47.1569C136.839 46.2638 137.455 45.5003 138.393 45.5003C138.532 45.5003 139.077 45.5288 139.508 46.0177L139.946 46.5142V45.8524V44.6148V44.4649L139.814 44.3942C139.781 44.3767 139.749 44.3596 139.718 44.343C139.529 44.2406 139.376 44.158 139.197 44.1068C138.985 44.0462 138.745 44.0303 138.36 44.0303C137.54 44.0303 136.774 44.2808 136.185 44.8335C135.918 45.0817 135.683 45.4493 135.515 45.8523C135.346 46.2572 135.237 46.7164 135.237 47.1569C135.237 48.0194 135.493 48.7571 136.183 49.4121L136.183 49.4121L136.185 49.4138C136.691 49.8839 137.317 50.2501 138.36 50.2501C138.98 50.2501 139.454 50.0664 139.808 49.8891Z" fill="#DA0A15" stroke="white" stroke-width="0.5"/>
<path d="M142.869 50.0821H143.037L143.101 49.9272L143.505 48.9448H145.374L145.778 49.9272L145.842 50.0821H146.009H147.145H147.52L147.376 49.7359L145.104 44.2837L145.04 44.1299H144.874H144.039H143.874L143.809 44.2813L141.47 49.7336L141.321 50.0821H141.7H142.869ZM144.875 47.5751H144.07L144.473 46.5408L144.875 47.5751Z" fill="#DA0A15" stroke="white" stroke-width="0.5"/>
<path d="M150.769 44.3799V44.1299H150.519H149.45H149.2V44.3799V49.8655V50.1155H149.45H152.189H152.439V49.8655V48.929V48.679H152.189H150.769V44.3799Z" fill="#DA0A15" stroke="white" stroke-width="0.5"/>
<path d="M163.037 47.9858L163.095 47.9163V47.8259V47.7924V47.685L163.017 47.6111L162.383 47.009L162.156 46.7944L161.996 47.0618C161.929 47.174 161.797 47.3368 161.553 47.5913L161.029 46.9881C161.3 46.8274 161.527 46.6728 161.677 46.4542C161.84 46.2186 161.893 45.942 161.893 45.5848C161.893 45.1925 161.755 44.8001 161.46 44.505C161.164 44.208 160.729 44.0303 160.173 44.0303C159.01 44.0303 158.42 45.0017 158.42 45.6517C158.42 46.1127 158.626 46.4822 158.82 46.7319L158.642 46.8417C158.391 46.986 157.651 47.4849 157.651 48.428C157.651 48.9157 157.903 49.3713 158.258 49.6988C158.614 50.0273 159.099 50.2501 159.605 50.2501C160.394 50.2501 161.002 49.8786 161.349 49.6104L161.723 50.0322L161.798 50.1163H161.91H163.213H163.77L163.399 49.7L162.454 48.6385C162.608 48.4838 162.721 48.3664 163.037 47.9858ZM160.235 45.9789L160.234 45.9788L160.228 45.9835L160.168 46.0263L160.07 45.8997L160.06 45.8874L160.049 45.8764C159.936 45.7636 159.888 45.6899 159.888 45.5513C159.888 45.455 159.977 45.2996 160.206 45.2996C160.324 45.2996 160.387 45.3397 160.423 45.3813C160.464 45.4284 160.491 45.5003 160.491 45.5848C160.491 45.6731 160.462 45.8271 160.235 45.9789ZM159.254 48.3276C159.254 48.2095 159.306 48.0914 159.422 47.9656C159.501 47.8788 159.604 47.796 159.722 47.7167L160.456 48.5699C160.29 48.6945 160.062 48.8135 159.805 48.8135C159.462 48.8135 159.254 48.5772 159.254 48.3276Z" fill="#DA0A15" stroke="white" stroke-width="0.5"/>
<path d="M172.267 44.5971L172.258 44.5888L172.248 44.5814C171.939 44.3494 171.52 44.1299 170.695 44.1299H170.662H169.092H168.842V44.3799V49.8321V50.0821H169.092H170.161H170.411V49.8321V48.2504L171.556 49.9706L171.63 50.0821H171.764H173.1H173.596L173.301 49.6836L171.818 47.6734C171.945 47.6232 172.052 47.5608 172.139 47.4967C172.665 47.1661 172.883 46.5034 172.883 46.0189C172.883 45.5269 172.728 45.0204 172.267 44.5971ZM170.461 46.6386H170.377V45.4996H170.461C170.468 45.4996 170.474 45.4995 170.481 45.4995C170.596 45.4993 170.79 45.4988 170.959 45.5686C171.044 45.6034 171.112 45.652 171.16 45.719C171.206 45.7847 171.247 45.8867 171.247 46.0523C171.247 46.2179 171.206 46.3233 171.158 46.3935C171.108 46.4651 171.038 46.5175 170.952 46.5558C170.772 46.6363 170.563 46.6386 170.461 46.6386Z" fill="#DA0A15" stroke="white" stroke-width="0.5"/>
<path d="M178.479 45.5665H178.729V45.3165V44.3799V44.1299H178.479H175.439H175.189V44.3799V49.8655V50.1155H175.439H178.479H178.729V49.8655V48.929V48.679H178.479H176.758V47.7072H178.379H178.629V47.4572V46.5206V46.2706H178.379H176.758V45.5665H178.479Z" fill="#DA0A15" stroke="white" stroke-width="0.5"/>
<path d="M183.647 45.7944L183.841 45.6237L183.988 45.737L184.556 45.0012L184.686 44.8325L184.54 44.6772C184.451 44.5821 184.387 44.5065 184.328 44.437C184.302 44.4055 184.276 44.3752 184.25 44.345C184.17 44.2532 184.082 44.1623 183.957 44.0961C183.832 44.0305 183.69 43.9999 183.517 43.9834C183.345 43.9669 183.121 43.9629 182.821 43.9629C182.161 43.9629 181.658 44.1852 181.32 44.5431C180.986 44.8974 180.834 45.3633 180.834 45.8184C180.834 46.4518 181.157 46.8134 181.342 46.9986L181.348 47.0045L181.354 47.01C181.66 47.2786 182.035 47.425 182.341 47.5273C182.364 47.5348 182.386 47.5422 182.408 47.5495C182.539 47.593 182.662 47.6338 182.777 47.683C182.911 47.7403 183.011 47.8004 183.079 47.8683C183.125 47.9148 183.168 47.9445 183.195 47.9619C183.195 47.9648 183.196 47.968 183.196 47.9715C183.202 48.0123 183.206 48.0798 183.206 48.1933C183.206 48.3374 183.136 48.4635 183.018 48.5604C182.896 48.6603 182.742 48.7127 182.621 48.7127C182.334 48.7127 181.928 48.5539 181.709 48.1151L181.558 47.8122L181.313 48.0459L180.611 48.7148L180.465 48.8544L180.571 49.0267C180.711 49.2552 180.916 49.5483 181.25 49.782C181.587 50.0184 182.039 50.1827 182.654 50.1827C183.277 50.1827 183.818 49.9803 184.205 49.6121C184.593 49.243 184.808 48.7238 184.808 48.1264C184.808 47.5101 184.537 47.0818 184.268 46.8125L184.262 46.8066L184.255 46.8011C183.946 46.5304 183.502 46.3508 183.062 46.2151L183.062 46.2149L183.054 46.2128C182.684 46.1117 182.579 46.0578 182.497 45.9763L182.485 45.9637L182.47 45.953C182.458 45.9438 182.445 45.9345 182.435 45.9269C182.431 45.9236 182.427 45.9207 182.423 45.9182C182.417 45.9136 182.412 45.91 182.408 45.9069C182.405 45.8843 182.403 45.8476 182.403 45.785C182.403 45.7095 182.433 45.6149 182.504 45.5405C182.572 45.4709 182.695 45.3995 182.922 45.3995C183.046 45.3995 183.25 45.4119 183.464 45.5974L183.458 45.6055L183.613 45.761L183.647 45.7944Z" fill="#DA0A15" stroke="white" stroke-width="0.5"/>
<path d="M191.218 49.8891L191.356 49.82V49.6656V48.428V47.7269L190.912 48.2698C190.876 48.3139 190.843 48.3563 190.814 48.3941C190.811 48.3981 190.808 48.4021 190.805 48.406C190.772 48.4479 190.744 48.4832 190.717 48.5154C190.664 48.5782 190.618 48.6214 190.564 48.6551C190.457 48.7219 190.273 48.78 189.837 48.78C189.464 48.78 189.065 48.598 188.756 48.292C188.448 47.9873 188.249 47.5803 188.249 47.1569C188.249 46.2638 188.865 45.5003 189.803 45.5003C189.942 45.5003 190.488 45.5288 190.918 46.0177L191.356 46.5142V45.8524V44.6148V44.4649L191.224 44.3942C191.191 44.3767 191.159 44.3596 191.128 44.343C190.939 44.2406 190.786 44.158 190.607 44.1068C190.395 44.0462 190.156 44.0303 189.77 44.0303C188.95 44.0303 188.184 44.2808 187.595 44.8335C187.328 45.0817 187.093 45.4493 186.925 45.8523C186.756 46.2572 186.647 46.7164 186.647 47.1569C186.647 48.0194 186.903 48.7571 187.593 49.4121L187.593 49.4121L187.595 49.4138C188.101 49.8839 188.727 50.2501 189.77 50.2501C190.39 50.2501 190.864 50.0664 191.218 49.8891Z" fill="#DA0A15" stroke="white" stroke-width="0.5"/>
<path d="M194.53 44.1299H193.778H193.528V44.3799V47.7248C193.528 48.2664 193.592 48.8756 193.979 49.3475C194.41 49.9659 195.2 50.2493 195.949 50.2493C196.718 50.2493 197.461 49.9203 197.915 49.3526L197.915 49.3526L197.918 49.3489C198.303 48.8468 198.37 48.2419 198.37 47.7248V44.3799V44.1299H198.12H197.051H196.801V44.3799V47.8251C196.801 48.1731 196.686 48.3727 196.607 48.4513C196.468 48.5913 196.26 48.7459 195.916 48.7459C195.556 48.7459 195.359 48.6122 195.239 48.468L195.232 48.4593L195.224 48.4513C195.146 48.3727 195.03 48.1731 195.03 47.8251V44.3799H194.847V44.1299H194.78H194.53Z" fill="#DA0A15" stroke="white" stroke-width="0.5"/>
<path d="M204 45.5665H204.25V45.3165V44.3799V44.1299H204H200.994H200.744V44.3799V49.8655V50.1155H200.994H204H204.25V49.8655V48.929V48.679H204H202.313V47.7072H203.933H204.183V47.4572V46.5206V46.2706H203.933H202.313V45.5665H204Z" fill="#DA0A15" stroke="white" stroke-width="0.5"/>
</svg>
